<svg xmlns="http://www.w3.org/2000/svg" xmlns:xlink="http://www.w3.org/1999/xlink" width="34" height="34" viewBox="0 0 34 34">
    <defs>
        <rect id="a" width="32" height="32" rx="4"/>
    </defs>
    <g fill="none" fill-rule="evenodd">
        <g transform="translate(1 1)">
            <use fill="#8DD119" xlink:href="#a"/>
            <rect width="33" height="33" x="-.5" y="-.5" stroke="#FFF" rx="4"/>
        </g>
        <path fill="#FFF" fill-rule="nonzero" d="M7.5 13.406c0-.767.599-1.388 1.338-1.388h1.16V24.5h-1.16c-.74 0-1.338-.625-1.338-1.388v-9.706zm17.663-1.388c.739 0 1.337.621 1.337 1.388v9.705c0 .764-.598 1.389-1.337 1.389h-1.161V12.018h1.16zm-4.784-1.797v1.797h2.442V24.5H11.18V12.018h2.44V10.22c0-.398.281-.721.625-.721h5.512c.344 0 .623.323.623.72z"/>
    </g>
</svg>
