<svg xmlns="http://www.w3.org/2000/svg" xmlns:xlink="http://www.w3.org/1999/xlink" width="34" height="34" viewBox="0 0 34 34">
    <defs>
        <rect id="a" width="32" height="32" rx="4"/>
    </defs>
    <g fill="none" fill-rule="evenodd">
        <g transform="translate(1 1)">
            <use fill="#8DD119" xlink:href="#a"/>
            <rect width="33" height="33" x="-.5" y="-.5" stroke="#FFF" rx="4"/>
        </g>
        <path fill="#FFF" fill-rule="nonzero" d="M13.53 13.568c-2.117-.327-4.393-2.288 1.176-2.288 5.433 0 .401-2.468 0-3.28 0 0 3.432.643 3.432 2.221 0 1.59-1.178 2.22-4.644 2.22-3.11 0 1.865.63 2.368 2.288h5.73v2.22h2.264c.641 0 1.144.508 1.144 1.127v3.382c0 .62-.503 1.127-1.144 1.127h-2.264v1.07c0 1.296-1.03 2.345-2.299 2.345h-8.006C10.017 26 9 24.951 9 23.656v-8.927h6.267c-.411-.53-.548-.98-1.738-1.16zm8.05 7.89h2.288v-3.382h-2.287v3.382z"/>
    </g>
</svg>
