<?xml version="1.0" encoding="utf-8"?>
<!-- Generator: Adobe Illustrator 19.1.0, SVG Export Plug-In . SVG Version: 6.00 Build 0)  -->
<svg version="1.1" id="Layer_1" xmlns="http://www.w3.org/2000/svg" xmlns:xlink="http://www.w3.org/1999/xlink" x="0px" y="0px"
	 viewBox="0 0 32 32" width="32" height="32" style="enable-background:new 0 0 32 32;" xml:space="preserve">
<style type="text/css">
	.st0{fill:#A159F2;stroke:#460095;stroke-width:2;stroke-miterlimit:10;}
	.st1{fill:#4D00A4;}
</style>
<g>
	<circle class="st0" cx="16" cy="16" r="13"/>
	<g>
		<path transform="translate(2,2)" class="st1" d="M14.1859131,8.0748119c-2.6155195,0-4.9946098,1.07726-6.7109132,2.7933416l0,0l0.1916304,0.1915741
			c0.3571877,0.3570852,0.9255738,0.3845949,1.3168683,0.0652494c1.4250183-1.1629963,3.2375584-1.8664637,5.2255173-1.8664637l0,0
			c2.2964907,0,4.3792868,0.9477406,5.8822622,2.4617634l0,0l0.0979786-0.099349
			c0.4034367-0.4090757,0.3784714-1.0828133-0.0672932-1.445302C18.5056114,8.8612318,16.4409084,8.0748119,14.1859131,8.0748119
			 M14.2448912,10.4417219c-1.9885092,0-3.7753792,0.8287735-5.0535879,2.1429815l0,0l0.1666374,0.1664848
			c0.3465681,0.3462524,0.8906441,0.3673401,1.2806377,0.0708523c0.9877167-0.7508993,2.2243614-1.1966171,3.5704374-1.1966171l0,0
			c1.6452932,0,3.1368284,0.6751699,4.2018099,1.7635002l0,0l0.0943661-0.0929737
			c0.4338894-0.4274912,0.3782425-1.1409101-0.113266-1.5006704C17.2284393,10.9436617,15.7957363,10.4417219,14.2448912,10.4417219
			 M14.1974516,12.7744579c-1.3256226,0-2.5327969,0.5441656-3.3968544,1.431695l0,0l0.2220459,0.2219238
			c0.3291912,0.32901,0.8453302,0.3848915,1.2326336,0.1268034c0.5646362-0.3762569,1.2405577-0.5972137,1.9658947-0.5972137l0,0
			c1.0061264,0,1.9053431,0.41366,2.5565424,1.0888243l0,0l0.0538197-0.0546389
			c0.4440365-0.4507799,0.3559818-1.2012148-0.184288-1.5305767C15.9334278,13.0261145,15.0974865,12.7744579,14.1974516,12.7744579
			 M14.2448912,15.2114162c-1.2898722,0-2.3317499,1.0418777-2.3317499,2.3315277l0,0
			c0,1.2910862,1.0418777,2.332243,2.3317499,2.332243l0,0c1.289773,0,2.3311586-1.0411568,2.3311586-2.332243l0,0
			C16.5760498,16.253294,15.5346642,15.2114162,14.2448912,15.2114162L14.2448912,15.2114162z"/>
	</g>
</g>
</svg>
