<svg width="36" height="36" viewBox="0 0 32 32" fill="none" xmlns="http://www.w3.org/2000/svg">
<path d="M0.5 16C0.5 7.43959 7.43959 0.5 16 0.5C24.5604 0.5 31.5 7.43959 31.5 16C31.5 24.5604 24.5604 31.5 16 31.5C7.43959 31.5 0.5 24.5604 0.5 16Z" fill="#71983E" stroke="white"/>
<path fill-rule="evenodd" clip-rule="evenodd" d="M24.8509 15.4702C24.8231 15.2089 24.7842 14.9447 24.7352 14.6842C24.6734 14.3571 24.8765 14.0395 25.1888 13.9749C25.4999 13.9087 25.8041 14.1228 25.8659 14.4501C25.9212 14.7438 25.9651 15.0419 25.9964 15.3366C26.0316 15.668 25.8036 15.9669 25.4873 16.0036C25.4657 16.0063 25.4442 16.0073 25.423 16.0073C25.1331 16.0073 24.8837 15.779 24.8509 15.4702ZM7.19866 12.9033C6.90957 12.7638 6.78323 12.4052 6.91626 12.102C7.16245 11.5416 7.45744 11.0004 7.79336 10.4939C7.97461 10.22 8.33356 10.1519 8.59549 10.3423C8.85683 10.5326 8.92157 10.9088 8.73993 11.1829C8.44258 11.6315 8.18124 12.1111 7.9632 12.6073C7.86598 12.8284 7.65738 12.959 7.43934 12.959C7.35865 12.959 7.27679 12.941 7.19866 12.9033ZM6.57621 17.0755H6.57581C6.2576 17.0753 5.99961 16.8047 6 16.471C6.0002 15.853 6.05353 15.2318 6.15822 14.6242C6.2147 14.2959 6.51402 14.0768 6.82771 14.1373C7.141 14.1965 7.34901 14.5106 7.29253 14.8389C7.19984 15.376 7.15281 15.9254 7.15241 16.472C7.15222 16.8053 6.89422 17.0755 6.57621 17.0755ZM7.43107 18.7946C7.56017 19.3255 7.73452 19.846 7.94922 20.3419C8.08088 20.6457 7.95257 21.0037 7.66269 21.1415C7.58555 21.1782 7.50447 21.1957 7.42477 21.1957C7.20574 21.1957 6.99616 21.0637 6.89973 20.8412C6.65709 20.2806 6.4601 19.6924 6.31447 19.0928C6.23576 18.7696 6.42212 18.4409 6.73049 18.3584C7.03827 18.2761 7.35255 18.4714 7.43107 18.7946ZM9.85653 9.58987C9.69496 9.58987 9.53418 9.51913 9.42024 9.38074C9.21223 9.12829 9.2386 8.74693 9.47948 8.52893C9.92541 8.12509 10.4081 7.76085 10.9145 7.44632C11.1882 7.27576 11.5419 7.37125 11.704 7.65814C11.8664 7.94503 11.7758 8.31525 11.5021 8.48541C11.0544 8.76364 10.6274 9.08559 10.233 9.44282C10.1242 9.5414 9.98995 9.58987 9.85653 9.58987ZM17.2866 25.6965C17.6013 25.6487 17.8937 25.878 17.9392 26.2082C17.9844 26.5384 17.766 26.8447 17.4509 26.8923C16.977 26.9637 16.4951 27 16.0189 27C15.9077 27 15.7967 26.9981 15.6861 26.9944C15.3679 26.9835 15.1183 26.7044 15.1288 26.3711C15.139 26.0376 15.4078 25.7792 15.7233 25.7868C16.2405 25.8044 16.7683 25.7749 17.2866 25.6965ZM24.2912 21.3364C24.5588 21.5169 24.6364 21.8906 24.4644 22.1711C24.146 22.6904 23.7817 23.1829 23.3818 23.6355C23.2683 23.7637 23.1138 23.8289 22.9589 23.8289C22.8188 23.8289 22.6783 23.7757 22.5673 23.668C22.3339 23.4414 22.3199 23.0592 22.5362 22.8144C22.8902 22.414 23.2128 21.9778 23.4948 21.5181C23.6666 21.2372 24.0234 21.1561 24.2912 21.3364ZM25.4686 17.2982C25.7837 17.3457 26.0025 17.6515 25.9573 17.9815C25.8738 18.5922 25.7372 19.1992 25.5517 19.786C25.4716 20.0397 25.2464 20.2004 25.0048 20.2004C24.9448 20.2004 24.8836 20.1905 24.8233 20.1694C24.5213 20.0645 24.3575 19.7229 24.4577 19.4061C24.6218 18.887 24.7427 18.3499 24.8164 17.8104C24.8615 17.4801 25.1518 17.25 25.4686 17.2982ZM9.12132 22.3318C9.44819 22.7556 9.81402 23.1522 10.2084 23.5109C10.4489 23.7295 10.4747 24.1111 10.2663 24.3631C10.1521 24.5007 9.99173 24.5712 9.83055 24.5712C9.69674 24.5712 9.56233 24.5225 9.4533 24.4235C9.00777 24.0185 8.5945 23.5701 8.22493 23.091C8.02499 22.8317 8.06317 22.4514 8.31073 22.2416C8.55849 22.0319 8.92118 22.0723 9.12132 22.3318ZM13.5212 25.4131C13.8264 25.5076 14.0008 25.8436 13.9106 26.1635C13.8366 26.4262 13.6072 26.5966 13.3582 26.5966C13.3041 26.5966 13.2492 26.5885 13.1949 26.5716C12.6305 26.3971 12.0771 26.1682 11.5499 25.8916C11.2654 25.7425 11.15 25.3797 11.2923 25.0815C11.4348 24.783 11.781 24.662 12.0657 24.8115C12.5323 25.0563 13.0221 25.2586 13.5212 25.4131ZM20.8263 24.3175C21.0935 24.1373 21.4505 24.2185 21.6225 24.4992C21.7947 24.7797 21.7172 25.1535 21.4493 25.3339C20.9534 25.6678 20.4262 25.957 19.8823 26.1934C19.8101 26.2247 19.7353 26.2398 19.6617 26.2398C19.4356 26.2398 19.2211 26.0993 19.1292 25.8667C19.0072 25.5585 19.1467 25.2054 19.4407 25.0775C19.9216 24.8684 20.3878 24.6129 20.8263 24.3175ZM13.4106 7.57502C13.1601 7.57502 12.9296 7.40239 12.857 7.13736C12.769 6.81664 12.946 6.48231 13.2518 6.39012C13.5247 6.30803 13.8046 6.23729 14.0836 6.17954C14.3949 6.11292 14.699 6.32742 14.7608 6.65474C14.8224 6.98185 14.6195 7.29968 14.3072 7.36424C14.0598 7.4158 13.8117 7.4785 13.57 7.55151C13.5169 7.56719 13.4633 7.57502 13.4106 7.57502ZM15.7473 6.29648C15.8024 6.27503 15.8075 6.23193 15.7857 6.1913L15.3124 5.30814L15.7869 5.32567L16.5038 6.07703C16.9765 5.96277 17.594 5.83964 18.2954 5.72765C18.4136 5.70888 18.4583 5.60885 18.4058 5.53604L17.0288 3.01753L17.5838 3L18.1991 3.68227L18.6624 3.62267C18.7679 3.60905 18.8651 3.68846 18.8779 3.79942C18.891 3.91018 18.8151 4.01186 18.7094 4.02568L18.5299 4.04857L18.8535 4.40724L19.2836 4.35196C19.3893 4.33835 19.4863 4.41776 19.4995 4.52851C19.5123 4.63927 19.4366 4.74095 19.3309 4.75477L19.1843 4.77333L19.8541 5.51521C20.2426 5.4721 21.3478 5.26132 21.3974 5.68475C21.4468 6.10818 20.3205 6.18511 19.939 6.24038L19.4602 7.12994L19.607 7.11096C19.7125 7.09714 19.8095 7.17696 19.8227 7.28772C19.8356 7.39868 19.7597 7.50015 19.654 7.51397L19.224 7.56925L18.9928 7.99948L19.1723 7.97638C19.2777 7.96277 19.3746 8.04218 19.3879 8.15335C19.4009 8.2641 19.325 8.36578 19.2195 8.3796L18.756 8.439L18.3166 9.25637L17.7739 9.38012L18.5289 6.58791C18.5632 6.50315 18.4967 6.41796 18.3774 6.42972C17.6711 6.4984 17.0436 6.53594 16.5585 6.54501L16.0364 7.4554L15.58 7.59255L15.8353 6.61596C15.8475 6.57059 15.8323 6.53016 15.7739 6.52377C15.6204 6.50624 15.5352 6.47984 15.531 6.44416L15.5308 6.44354C15.5306 6.44251 15.5308 6.44065 15.5308 6.43962C15.5306 6.43797 15.53 6.43673 15.5298 6.4355V6.43529C15.5257 6.39981 15.6027 6.35176 15.7473 6.29648ZM15.8103 20.8639C17.4972 20.8639 18.4187 19.9471 18.4187 18.2121V17.5406C17.7314 18.4734 16.8724 19.1289 15.5133 19.1289C13.5765 19.1289 11.7644 17.6233 11.7644 15.085V15.0524C11.7644 12.4988 13.5924 10.9924 15.5133 10.9924C16.9036 10.9924 17.763 11.6639 18.403 12.4654V12.0562C18.403 11.516 18.8245 11.0745 19.3399 11.0745C19.8713 11.0745 20.2936 11.516 20.2936 12.0731V18.0484C20.2936 19.5051 19.934 20.5858 19.2466 21.3059C18.4969 22.0915 17.3407 22.4689 15.8567 22.4689C14.7012 22.4689 13.6702 22.2066 12.6705 21.699C12.3424 21.5678 12.1399 21.29 12.1399 20.9132C12.1399 20.4708 12.4991 20.0942 12.9357 20.0942C13.0768 20.0942 13.1862 20.1274 13.2799 20.1767C14.0297 20.6184 14.8568 20.8639 15.8103 20.8639ZM18.2105 15.0683V15.0363C18.2105 13.6278 17.1016 12.6626 15.79 12.6626C14.4776 12.6626 13.4468 13.6121 13.4468 15.0363V15.0683C13.4468 16.4767 14.4931 17.4428 15.79 17.4428C17.1016 17.4428 18.2105 16.4767 18.2105 15.0683Z" fill="white"/>
</svg>
