<svg width="40" height="56" viewBox="0 0 40 56" fill="none" xmlns="http://www.w3.org/2000/svg">
<path fill-rule="evenodd" clip-rule="evenodd" d="M30 52.5C30 54.4329 25.5225 56 20 56C14.4775 56 10 54.4329 10 52.5C10 50.5671 14.4775 49 20 49C25.5225 49 30 50.5671 30 52.5Z" fill="#231F20" fill-opacity="0.3"/>
<path d="M3.0519 28.9123L3.05177 28.9121C1.3108 26.1451 0.5 23.2455 0.5 19.7647C0.5 14.6192 2.5259 9.78324 6.2086 6.14388C9.89152 2.50431 14.7878 0.5 20 0.5C25.2122 0.5 30.1085 2.5043 33.7914 6.14387C37.4741 9.78324 39.5 14.6192 39.5 19.7647C39.5 23.2455 38.6892 26.1451 36.9482 28.9121L36.9481 28.9123C35.4018 31.3727 33.326 33.4163 31.0729 35.626C30.5778 36.1112 30.0719 36.5914 29.5616 37.0758C25.8335 40.6146 21.8651 44.3815 20.0703 52.0361C20.0558 52.0898 20.0295 52.1413 20.0018 52.1771C19.9889 52.161 19.9755 52.1409 19.963 52.1174C19.9477 52.0886 19.9364 52.0597 19.9293 52.0344C18.1373 44.3888 14.1793 40.6298 10.4573 37.0951C9.9406 36.6044 9.42849 36.118 8.92735 35.6262L8.92722 35.6261C6.67408 33.4164 4.59822 31.3727 3.0519 28.9123ZM19.9666 52.2129C19.9667 52.2128 19.9673 52.2124 19.9684 52.2118C19.9672 52.2127 19.9666 52.213 19.9666 52.2129ZM20.037 52.2126C20.0385 52.2133 20.0392 52.2138 20.0392 52.2139C20.0392 52.2139 20.0385 52.2136 20.037 52.2126ZM3.91714 19.7647C3.91714 28.5397 11.141 35.6643 20 35.6643C28.865 35.6643 36.0829 28.5338 36.0829 19.7647C36.0829 10.9899 28.8649 3.86518 20 3.86518C11.141 3.86518 3.91714 10.9897 3.91714 19.7647Z" fill="#71983E" stroke="#5A8326"/>
<path d="M20 1.33333C9.71178 1.33333 1.33337 9.40591 1.33337 19.3334C1.33337 29.2608 9.70499 37.3333 20 37.3333C30.2951 37.3333 38.6667 29.2542 38.6667 19.3334C38.6667 9.40591 30.2951 1.33333 20 1.33333Z" fill="#71983E"/>
<g>
<path fill-rule="evenodd" clip-rule="evenodd" d="M30.1785 19.029C30.1466 18.735 30.1018 18.4378 30.0455 18.1448C29.9744 17.7768 30.2079 17.4194 30.5671 17.3468C30.9249 17.2723 31.2748 17.5132 31.3458 17.8814C31.4094 18.2118 31.4599 18.5471 31.4959 18.8787C31.5364 19.2515 31.2741 19.5878 30.9104 19.6291C30.8855 19.6321 30.8608 19.6332 30.8364 19.6332C30.503 19.6332 30.2163 19.3764 30.1785 19.029ZM9.87846 16.1412C9.54601 15.9843 9.40072 15.5808 9.5537 15.2397C9.83682 14.6093 10.1761 14.0005 10.5624 13.4306C10.7708 13.1225 11.1836 13.0459 11.4848 13.2601C11.7854 13.4742 11.8598 13.8974 11.6509 14.2058C11.309 14.7105 11.0084 15.2499 10.7577 15.8082C10.6459 16.057 10.406 16.2038 10.1552 16.2038C10.0624 16.2038 9.9683 16.1836 9.87846 16.1412ZM9.16264 20.8349H9.16219C8.79624 20.8347 8.49955 20.5303 8.5 20.1548C8.50023 19.4597 8.56156 18.7608 8.68195 18.0772C8.74691 17.7078 9.09112 17.4614 9.45186 17.5294C9.81215 17.596 10.0514 17.9494 9.98641 18.3188C9.87982 18.923 9.82573 19.5411 9.82528 20.156C9.82505 20.531 9.52836 20.8349 9.16264 20.8349ZM10.1457 22.7689C10.2942 23.3661 10.4947 23.9518 10.7416 24.5096C10.893 24.8514 10.7455 25.2542 10.4121 25.4092C10.3234 25.4505 10.2301 25.4702 10.1385 25.4702C9.88661 25.4702 9.64558 25.3217 9.53469 25.0713C9.25565 24.4407 9.02911 23.7789 8.86164 23.1044C8.77112 22.7408 8.98544 22.371 9.34007 22.2782C9.69402 22.1856 10.0554 22.4053 10.1457 22.7689ZM12.935 12.4136C12.7492 12.4136 12.5643 12.334 12.4333 12.1783C12.1941 11.8943 12.2244 11.4653 12.5014 11.22C13.0142 10.7657 13.5694 10.356 14.1517 10.0021C14.4665 9.81023 14.8731 9.91765 15.0596 10.2404C15.2463 10.5632 15.1422 10.9797 14.8274 11.1711C14.3126 11.4841 13.8215 11.8463 13.3679 12.2482C13.2428 12.3591 13.0884 12.4136 12.935 12.4136ZM21.4796 30.5336C21.8415 30.4797 22.1778 30.7378 22.23 31.1092C22.2821 31.4807 22.0309 31.8253 21.6686 31.8789C21.1236 31.9592 20.5694 32 20.0217 32C19.8938 32 19.7662 31.9979 19.639 31.9937C19.2731 31.9814 18.9861 31.6675 18.9981 31.2925C19.0099 30.9173 19.319 30.6266 19.6818 30.6352C20.2765 30.6549 20.8835 30.6217 21.4796 30.5336ZM29.5349 25.6284C29.8427 25.8315 29.9318 26.2519 29.734 26.5675C29.3679 27.1517 28.949 27.7058 28.4891 28.2149C28.3585 28.3592 28.1809 28.4325 28.0028 28.4325C27.8416 28.4325 27.6801 28.3727 27.5524 28.2515C27.284 27.9965 27.2679 27.5666 27.5167 27.2912C27.9238 26.8408 28.2947 26.3501 28.619 25.8329C28.8166 25.5168 29.2269 25.4256 29.5349 25.6284ZM30.8889 21.0855C31.2512 21.1389 31.5029 21.483 31.4508 21.8542C31.3549 22.5413 31.1978 23.2241 30.9844 23.8843C30.8923 24.1697 30.6334 24.3504 30.3555 24.3504C30.2865 24.3504 30.2161 24.3393 30.1468 24.3156C29.7994 24.1975 29.6112 23.8133 29.7264 23.4569C29.9151 22.8728 30.0541 22.2686 30.1389 21.6616C30.1907 21.2902 30.5245 21.0312 30.8889 21.0855ZM12.0895 26.7482C12.4654 27.225 12.8861 27.6712 13.3397 28.0747C13.6162 28.3207 13.6459 28.7499 13.4062 29.0335C13.2749 29.1883 13.0905 29.2676 12.9051 29.2676C12.7512 29.2676 12.5967 29.2129 12.4713 29.1015C11.9589 28.6458 11.4837 28.1413 11.0587 27.6023C10.8287 27.3107 10.8726 26.8828 11.1573 26.6468C11.4423 26.4108 11.8594 26.4563 12.0895 26.7482ZM17.1494 30.2148C17.5004 30.321 17.7009 30.699 17.5972 31.0589C17.5121 31.3545 17.2483 31.5461 16.962 31.5461C16.8997 31.5461 16.8366 31.5371 16.7741 31.5181C16.1251 31.3218 15.4887 31.0642 14.8824 30.7531C14.5552 30.5853 14.4225 30.1772 14.5862 29.8417C14.75 29.5059 15.1481 29.3697 15.4756 29.5379C16.0122 29.8133 16.5754 30.041 17.1494 30.2148ZM25.5502 28.9822C25.8576 28.7794 26.2681 28.8708 26.4659 29.1866C26.6639 29.5022 26.5748 29.9226 26.2667 30.1257C25.6964 30.5013 25.0902 30.8266 24.4646 31.0925C24.3816 31.1278 24.2956 31.1447 24.2109 31.1447C23.9509 31.1447 23.7042 30.9867 23.5985 30.725C23.4582 30.3783 23.6187 29.9811 23.9568 29.8372C24.5099 29.602 25.046 29.3145 25.5502 28.9822ZM17.0222 10.1469C16.7341 10.1469 16.4691 9.95269 16.3856 9.65453C16.2844 9.29372 16.4879 8.9176 16.8395 8.81389C17.1534 8.72154 17.4753 8.64195 17.7962 8.57698C18.1542 8.50204 18.5038 8.74335 18.5749 9.11158C18.6457 9.47958 18.4124 9.83714 18.0533 9.90977C17.7688 9.96777 17.4834 10.0383 17.2055 10.1205C17.1444 10.1381 17.0828 10.1469 17.0222 10.1469ZM19.7094 8.70854C19.7728 8.68441 19.7786 8.63592 19.7535 8.59021L19.2092 7.59665L19.7549 7.61638L20.5793 8.46166C21.1229 8.33312 21.8331 8.1946 22.6397 8.0686C22.7757 8.04749 22.827 7.93495 22.7666 7.85305L21.1831 5.01972L21.8213 5L22.529 5.76756L23.0617 5.7005C23.183 5.68519 23.2948 5.77452 23.3095 5.89935C23.3247 6.02395 23.2373 6.13834 23.1158 6.15389L22.9094 6.17964L23.2815 6.58314L23.7762 6.52096C23.8977 6.50565 24.0093 6.59498 24.0245 6.71958C24.0392 6.84418 23.952 6.95857 23.8305 6.97412L23.6619 6.995L24.4323 7.82961C24.879 7.78112 26.15 7.54398 26.207 8.02034C26.2638 8.4967 24.9686 8.58325 24.5298 8.64543L23.9792 9.64618L24.148 9.62483C24.2693 9.60929 24.3809 9.69908 24.3961 9.82368C24.411 9.94851 24.3236 10.0627 24.2021 10.0782L23.7076 10.1404L23.4417 10.6244L23.6481 10.5984C23.7694 10.5831 23.8807 10.6725 23.8961 10.7975C23.9111 10.9221 23.8237 11.0365 23.7024 11.0521L23.1695 11.1189L22.6641 12.0384L22.0399 12.1776L22.9083 9.0364C22.9477 8.94104 22.8712 8.84521 22.734 8.85844C21.9218 8.9357 21.2001 8.97793 20.6422 8.98814L20.0418 10.0123L19.517 10.1666L19.8106 9.06796C19.8246 9.01691 19.8072 8.97143 19.7399 8.96424C19.5634 8.94452 19.4654 8.91482 19.4607 8.87468L19.4604 8.87398C19.4602 8.87282 19.4604 8.87073 19.4604 8.86957C19.4602 8.86772 19.4595 8.86632 19.4593 8.86493V8.8647C19.4546 8.82479 19.5431 8.77073 19.7094 8.70854ZM19.7818 25.0969C21.7217 25.0969 22.7816 24.0655 22.7816 22.1136V21.3582C21.9911 22.4076 21.0032 23.145 19.4403 23.145C17.213 23.145 15.1291 21.4512 15.1291 18.5956V18.5589C15.1291 15.6862 17.2313 13.9914 19.4403 13.9914C21.0392 13.9914 22.0275 14.7469 22.7635 15.6486V15.1882C22.7635 14.5805 23.2482 14.0838 23.8409 14.0838C24.452 14.0838 24.9376 14.5805 24.9376 15.2073V21.9294C24.9376 23.5682 24.5242 24.7841 23.7336 25.5941C22.8714 26.4779 21.5418 26.9025 19.8352 26.9025C18.5063 26.9025 17.3207 26.6074 16.171 26.0364C15.7938 25.8888 15.5609 25.5762 15.5609 25.1523C15.5609 24.6546 15.9739 24.2309 16.4761 24.2309C16.6384 24.2309 16.7642 24.2683 16.8719 24.3237C17.7342 24.8207 18.6853 25.0969 19.7818 25.0969ZM22.5421 18.5768V18.5408C22.5421 16.9563 21.2669 15.8704 19.7585 15.8704C18.2492 15.8704 17.0638 16.9387 17.0638 18.5408V18.5768C17.0638 20.1613 18.2671 21.2482 19.7585 21.2482C21.2669 21.2482 22.5421 20.1613 22.5421 18.5768Z" fill="#F9F9F9"/>
</g>
</svg>
