<?xml version="1.0" encoding="utf-8"?>
<!-- Generator: Adobe Illustrator 17.0.0, SVG Export Plug-In . SVG Version: 6.00 Build 0)  -->
<!DOCTYPE svg PUBLIC "-//W3C//DTD SVG 1.1//EN" "http://www.w3.org/Graphics/SVG/1.1/DTD/svg11.dtd">
<svg version="1.1" id="Layer_1" xmlns="http://www.w3.org/2000/svg" xmlns:xlink="http://www.w3.org/1999/xlink" x="0px" y="0px"
	 width="150px" height="125.733px" viewBox="0 0 150 125.733" enable-background="new 0 0 150 125.733" xml:space="preserve">
<g opacity="0.2">
	
		<linearGradient id="SVGID_1_" gradientUnits="userSpaceOnUse" x1="-333.5829" y1="-177.2795" x2="-272.5196" y2="-116.2161" gradientTransform="matrix(0.454 -0.891 -0.891 -0.454 67.9707 -251.8958)">
		<stop  offset="0" style="stop-color:#211F1F"/>
		<stop  offset="0.1336" style="stop-color:#211F1F;stop-opacity:0.8664"/>
		<stop  offset="1" style="stop-color:#211F1F;stop-opacity:0"/>
	</linearGradient>
	<path fill="url(#SVGID_1_)" d="M109.393,56.357c-6.262-10.683-33.994-21.441-60.41-13.06C22.568,51.679,3.817,77.185,5.167,89.427
		c1.423,12.899,69.838,36.214,69.838,36.214S115.96,67.561,109.393,56.357z"/>
</g>
<g>
	<g>
		
			<linearGradient id="SVGID_2_" gradientUnits="userSpaceOnUse" x1="74.885" y1="126.841" x2="74.885" y2="15.993" gradientTransform="matrix(1 0 0 -1 0 141.726)">
			<stop  offset="0" style="stop-color:#9AC44D"/>
			<stop  offset="1" style="stop-color:#409043"/>
		</linearGradient>
		<path fill="url(#SVGID_2_)" d="M112.824,51.933c0-20.461-16.986-37.048-37.939-37.048S36.946,31.472,36.946,51.933
			c0,19.571,38.054,73.8,38.054,73.8S112.824,71.416,112.824,51.933z"/>
	</g>
	<ellipse fill="#2C8140" cx="74.885" cy="51.054" rx="28.449" ry="27.781"/>
	<path fill="#FFFFFF" d="M54.276,49.558l-1.971,1.554l4.017,4.925l5.308-1.597L54.276,49.558z M97.386,47.888
		c-0.565-1.79-3.606-1.664-5.438-1.113l-10.741,3.233l-18.195-11.93l-2.287,2.073l9.761,13.086L57.29,57.208
		c1.232,0.965,3.796,2.301,8.902,2.952l27.38-8.243C95.405,51.367,97.951,49.677,97.386,47.888z"/>
</g>
</svg>
