<svg width="80" height="112" viewBox="0 0 40 56" fill="none" xmlns="http://www.w3.org/2000/svg">
<path fill-rule="evenodd" clip-rule="evenodd" d="M30 52.5C30 54.4329 25.5225 56 20 56C14.4775 56 10 54.4329 10 52.5C10 50.5671 14.4775 49 20 49C25.5225 49 30 50.5671 30 52.5Z" fill="#231F20" fill-opacity="0.3"/>
<path d="M3.0519 28.9123L3.05177 28.9121C1.3108 26.1451 0.5 23.2455 0.5 19.7647C0.5 14.6192 2.5259 9.78324 6.2086 6.14388C9.89152 2.50431 14.7878 0.5 20 0.5C25.2122 0.5 30.1085 2.5043 33.7914 6.14387C37.4741 9.78324 39.5 14.6192 39.5 19.7647C39.5 23.2455 38.6892 26.1451 36.9482 28.9121L36.9481 28.9123C35.4018 31.3727 33.326 33.4163 31.0729 35.626C30.5778 36.1112 30.0719 36.5914 29.5616 37.0758C25.8335 40.6146 21.8651 44.3815 20.0703 52.0361C20.0558 52.0898 20.0295 52.1413 20.0018 52.1771C19.9889 52.161 19.9755 52.1409 19.963 52.1174C19.9477 52.0886 19.9364 52.0597 19.9293 52.0344C18.1373 44.3888 14.1793 40.6298 10.4573 37.0951C9.9406 36.6044 9.42849 36.118 8.92735 35.6262L8.92722 35.6261C6.67408 33.4164 4.59822 31.3727 3.0519 28.9123ZM19.9666 52.2129C19.9667 52.2128 19.9673 52.2124 19.9684 52.2118C19.9672 52.2127 19.9666 52.213 19.9666 52.2129ZM20.037 52.2126C20.0385 52.2133 20.0392 52.2138 20.0392 52.2139C20.0392 52.2139 20.0385 52.2136 20.037 52.2126ZM3.91714 19.7647C3.91714 28.5397 11.141 35.6643 20 35.6643C28.865 35.6643 36.0829 28.5338 36.0829 19.7647C36.0829 10.9899 28.8649 3.86518 20 3.86518C11.141 3.86518 3.91714 10.9897 3.91714 19.7647Z" fill="#447DFF" stroke="#215FEB"/>
<path d="M20 1.33331C9.71175 1.33331 1.33334 9.40589 1.33334 19.3334C1.33334 29.2608 9.70496 37.3333 20 37.3333C30.2951 37.3333 38.6667 29.2542 38.6667 19.3334C38.6667 9.40589 30.2951 1.33331 20 1.33331Z" fill="#447DFF"/>
<path fill-rule="evenodd" clip-rule="evenodd" d="M30.3884 24.7574L23.2735 22.5797L17.8065 9L15.7681 9.32181L16.1691 20.4044L7.42586 17.7284C7.73807 18.7375 8.63872 20.4548 11.1932 22.7333L29.3322 28.2854C30.5456 28.6567 32.5821 28.6491 32.9496 27.4219C33.3164 26.194 31.6016 25.1287 30.3884 24.7574ZM8.66902 12.2561L7 12.402L7.33905 16.7004L10.8555 17.7772L8.66902 12.2561Z" fill="#223F80"/>
</svg>
