<svg xmlns="http://www.w3.org/2000/svg" xmlns:xlink="http://www.w3.org/1999/xlink" width="34" height="34" viewBox="0 0 34 34">
    <defs>
        <rect id="a" width="32" height="32" rx="4"/>
    </defs>
    <g fill="none" fill-rule="evenodd">
        <g transform="translate(1 1)">
            <use fill="#8DD119" xlink:href="#a"/>
            <rect width="33" height="33" x="-.5" y="-.5" stroke="#FFF" rx="4"/>
        </g>
        <path fill="#FFF" fill-rule="nonzero" d="M17.69 16.815l5.612-6.818c.194-.23.248-.479.15-.68-.1-.201-.332-.317-.64-.317H11.188c-.307 0-.54.116-.639.317-.098.201-.044.45.148.679l5.616 6.821c.046.056.154.171.154.171l.083 4.587s-.005 1.6-.422 2.037c-.51.523-1.866.57-2.035.603h-.333c-.297 0-.54.177-.54.392v.131c0 .144.121.262.27.262h7.022c.149 0 .27-.118.27-.262v-.13c0-.216-.243-.393-.54-.393h-.335c-.169-.033-1.524-.08-2.034-.603-.378-.395-.418-1.738-.422-1.994l.084-4.63s.108-.116.155-.173zm-5.398-5.721l-1.175-1.427a.352.352 0 0 1-.074-.122.382.382 0 0 1 .144-.021h11.626a.38.38 0 0 1 .144.02.366.366 0 0 1-.075.125l-1.174 1.425h-9.416zm4.591 2.618c0-.578.484-1.047 1.08-1.047.597 0 1.08.469 1.08 1.047s-.483 1.047-1.08 1.047c-.596 0-1.08-.469-1.08-1.047z"/>
    </g>
</svg>
