<?xml version="1.0" encoding="UTF-8"?>
<svg width="34px" height="34px" viewBox="0 0 34 34" version="1.1" xmlns="http://www.w3.org/2000/svg" xmlns:xlink="http://www.w3.org/1999/xlink">
    <!-- Generator: Sketch 48.2 (47327) - http://www.bohemiancoding.com/sketch -->
    <title>places-map-icon-restaurant</title>
    <desc>Created with Sketch.</desc>
    <defs>
        <rect id="path-1" x="0" y="0" width="32" height="32" rx="4"></rect>
    </defs>
    <g id="map-markers---default-set-(JX)" stroke="none" stroke-width="1" fill="none" fill-rule="evenodd" transform="translate(-85.000000, -36.000000)">
        <g id="places-map-icon-restaurant" transform="translate(86.000000, 37.000000)">
            <g id="Rectangle-6">
                <use fill="#8DD119" fill-rule="evenodd" xlink:href="#path-1"></use>
                <rect stroke="#FFFFFF" stroke-width="1" x="-0.5" y="-0.5" width="33" height="33" rx="4"></rect>
            </g>
            <path d="M18.999907,7 C17.3429005,7 15.999814,8.94713017 15.999814,11.3497181 C15.999814,13.1334985 16.7403527,14.6643748 17.8000186,15.33507 L17.8000186,24.3800393 C17.8000186,24.7224974 18.0681896,25 18.3999628,25 L19.5998512,25 C19.9316245,25 20.2001674,24.7224974 20.2001674,24.3800393 L20.2001674,15.33507 C21.2594613,14.6643748 22,13.1334985 22,11.3497181 C22,8.94713017 20.6569135,7 18.999907,7 M14.1999814,7.01921763 L13.5996653,7.01921763 L13.5996653,13.2195934 L13.000093,13.2195934 L13.000093,7.01921763 L11.7998326,7.01921763 L11.7998326,13.2195934 L11.1998884,13.2195934 L11.1998884,7.01921763 L10.5999442,7.01921763 C10.268171,7.01921763 10,7.29710454 10,7.63956269 L10,15.0794756 C10,15.4223181 10.268171,15.6998206 10.5999442,15.6998206 L11.1998884,15.6998206 L11.1998884,24.3800393 C11.1998884,24.7224974 11.4680594,25 11.7998326,25 L13.000093,25 C13.3314943,25 13.5996653,24.7224974 13.5996653,24.3800393 L13.5996653,15.6998206 L14.1999814,15.6998206 C14.5313827,15.6998206 14.7999256,15.4223181 14.7999256,15.0794756 L14.7999256,7.63956269 C14.7999256,7.29710454 14.5313827,7.01921763 14.1999814,7.01921763" id="eat" fill="#FFFFFF"></path>
        </g>
    </g>
</svg>