<svg xmlns="http://www.w3.org/2000/svg" xmlns:xlink="http://www.w3.org/1999/xlink" width="34" height="34" viewBox="0 0 34 34">
    <defs>
        <rect id="a" width="32" height="32" rx="4"/>
    </defs>
    <g fill="none" fill-rule="evenodd">
        <g transform="translate(1 1)">
            <use fill="#8DD119" xlink:href="#a"/>
            <rect width="33" height="33" x="-.5" y="-.5" stroke="#FFF" rx="4"/>
        </g>
        <path fill="#FFF" fill-rule="nonzero" d="M21.5 10.74v.474h1.285v-.474c0-1.514-1.204-2.74-2.57-2.74-1.368 0-2.572 1.226-2.572 2.74v.474h1.285v-.474c0-.424.007-.823.279-1.123.27-.3.56-.466.944-.466.382 0 .7.165.972.466.27.3.377.699.377 1.123zm-1.286 1.117V26h4.564c.659 0 1.222-.544 1.222-1.208V11.857h-5.786zm-5.142 0H12.5V10.74c0-.424.141-.823.412-1.123.272-.3.628-.466 1.01-.466.384 0 .601.165.873.466.27.3.277.699.277 1.123v1.117zm1.285-1.117c0-1.514-1.205-2.74-2.571-2.74-1.367 0-2.572 1.226-2.572 2.74v1.117H8v12.935C8 25.456 8.56 26 9.22 26h10.351V11.857h-3.214V10.74z"/>
    </g>
</svg>
