<svg xmlns="http://www.w3.org/2000/svg" xmlns:xlink="http://www.w3.org/1999/xlink" width="34" height="34" viewBox="0 0 34 34">
    <defs>
        <rect id="a" width="32" height="32" rx="4"/>
    </defs>
    <g fill="none" fill-rule="evenodd">
        <g transform="translate(1 1)">
            <use fill="#8DD119" xlink:href="#a"/>
            <rect width="33" height="33" x="-.5" y="-.5" stroke="#FFF" rx="4"/>
        </g>
        <path fill="#FFF" fill-rule="nonzero" d="M25.64 22.649a1.237 1.237 0 0 1-.867.351H9.227c-.338 0-.645-.134-.867-.351A1.183 1.183 0 0 1 8 21.8V17c0-.663.55-1.2 1.227-1.2h1.637c.678 0 1.227.537 1.227 1.2v2h9.818v-2c0-.663.55-1.2 1.227-1.2h1.637c.678 0 1.227.537 1.227 1.2v4.8c0 .331-.137.631-.36.849zM21.91 25v-1.2h2.864V25h-2.864zM9.227 25v-1.2h2.864V25H9.227zm.818-10.6S10.864 9 17 9s6.955 5.4 6.955 5.4-3.273.2-3.273 2.2v1.2h-7.364v-1.2c0-2-3.273-2.2-3.273-2.2z"/>
    </g>
</svg>
