<?xml version="1.0" encoding="utf-8"?>
<!-- Generator: Adobe Illustrator 19.1.0, SVG Export Plug-In . SVG Version: 6.00 Build 0)  -->
<svg version="1.1" id="Layer_1_copy" xmlns="http://www.w3.org/2000/svg" xmlns:xlink="http://www.w3.org/1999/xlink" x="0px"
	 y="0px" viewBox="0 0 40 55" style="enable-background:new 0 0 40 55;" xml:space="preserve">
<style type="text/css">
	.st0{fill:#618339;}
	.st1{fill:#FFFFFF;}
	.st2{stroke:#93BD3E;stroke-width:6;stroke-miterlimit:10;}
	.st3{fill-rule:evenodd;clip-rule:evenodd;fill:#618339;}
</style>
<path class="st0" d="M38,40H26l-6,7l-6.1-7H2c-1.1,0-2-0.9-2-2V2c0-1.1,0.9-2,2-2h36c1.1,0,2,0.9,2,2v36C40,39.1,39.1,40,38,40z"/>
<path class="st1" d="M35,37H5c-1.1,0-2-0.9-2-2V5c0-1.1,0.9-2,2-2h30c1.1,0,2,0.9,2,2v30C37,36.1,36.1,37,35,37z"/>
<text transform="matrix(1 0 0 1 2469.9829 2465.8472)" class="st2" style="font-family:'MyriadPro-Regular'; font-size:12px;">5 pt</text>
<path class="st3" d="M8.3,14.4c0-3.3,1.3-6.2,3.5-8.3l-0.1-0.1C11,5.4,10.1,5.4,9.6,6c-1.9,2.3-3,5.2-3,8.4c0,3.7,1.5,7.1,4,9.5
	l0.3-0.3c0.5-0.5,0.5-1.3,0.1-1.9C9.3,19.8,8.3,17.2,8.3,14.4z M14,8.3c-0.6-0.6-1.6-0.5-2.1,0.2c-1.2,1.7-1.9,3.7-1.9,5.9
	c0,2.8,1.2,5.4,3,7.2l0.2-0.2c0.5-0.5,0.5-1.3,0.1-1.8c-1.1-1.4-1.7-3.2-1.7-5.1c0-2.3,1-4.5,2.5-6L14,8.3z M29.5,5l-0.2,0.2
	c-0.5,0.5-0.6,1.3-0.1,1.9c1.6,2,2.6,4.6,2.6,7.4c0,3.3-1.3,6.2-3.5,8.3l0.1,0.1c0.6,0.6,1.5,0.5,2.1-0.1c1.8-2.3,2.9-5.2,2.9-8.3
	C33.4,10.7,31.9,7.4,29.5,5z M27.1,7.3l-0.2,0.2c-0.5,0.5-0.6,1.3-0.2,1.9c1.1,1.4,1.7,3.2,1.7,5.1c0,2.3-1,4.4-2.5,6l0,0
	c0.6,0.6,1.6,0.5,2.1-0.2c1.2-1.7,1.9-3.7,1.9-5.9C30,11.6,28.9,9.1,27.1,7.3z M22.8,7.9h-0.9v9.2h-0.9V7.9h-1.8v9.2h-0.9V7.9h-0.9
	c-0.5,0-0.9,0.4-0.9,0.9v11c0,0.5,0.4,0.9,0.9,0.9h0.9v12.9c0,0.5,0.4,0.9,0.9,0.9h1.8c0.5,0,0.9-0.4,0.9-0.9V20.8h0.9
	c0.5,0,0.9-0.4,0.9-0.9v-11C23.7,8.3,23.3,7.9,22.8,7.9z"/>
</svg>
