<?xml version="1.0" encoding="UTF-8"?>
<svg width="43px" height="51px" viewBox="0 0 43 51" version="1.1" xmlns="http://www.w3.org/2000/svg" xmlns:xlink="http://www.w3.org/1999/xlink">
    <!-- Generator: Sketch 50.2 (55047) - http://www.bohemiancoding.com/sketch -->
    <title>map-icon-pin-grab</title>
    <desc>Created with Sketch.</desc>
    <defs></defs>
    <g id="MapsOnline-&amp;-JS-SDK-Icon-set-2017" stroke="none" stroke-width="1" fill="none" fill-rule="evenodd">
        <g id="iOS-SDK-Asset-Bundle-(PNG)" transform="translate(-195.000000, -1925.000000)">
            <g id="map-icon-[name]-[name]" transform="translate(42.000000, 1633.000000)">
                <g id="map-icon-pin-grab" transform="translate(153.000000, 292.000000)">
                    <path d="M30.1691257,42.0247419 L22.0953516,50.0985159 L14.0215776,42.0247419 L4,42.0247419 C1.790861,42.0247419 2.705415e-16,40.2338809 0,38.0247419 L0,4 C-2.705415e-16,1.790861 1.790861,4.05812251e-16 4,0 L39,0 C41.209139,-4.05812251e-16 43,1.790861 43,4 L43,38.0247419 C43,40.2338809 41.209139,42.0247419 39,42.0247419 L30.1691257,42.0247419 Z" id="pin" fill="#638238"></path>
                    <rect id="white-container" fill="#FFFFFF" x="3" y="3" width="37" height="36" rx="2"></rect>
                    <path d="M32.5740763,16.2178703 C31.3337445,17.5385511 30.0252222,18.8004746 28.8576885,20.1826244 C27.3915906,21.9182213 25.6361434,22.4958496 23.4604946,21.9146054 C22.7933326,21.735622 22.2625517,21.9082777 21.7815315,22.4624032 C19.7090901,24.8497528 17.6486282,27.2497579 15.4849589,29.5530395 C14.2151393,30.9053587 12.7739217,32.0985816 11.3760144,33.3261548 C11.0424334,33.6181328 10.592744,33.822427 10.1614845,33.9525968 C9.24275441,34.2319194 8.21528793,33.2231037 8.57282783,32.3345143 C8.87139208,31.5914619 9.33674686,30.8863756 9.84725487,30.2626455 C11.7169674,27.9801549 13.9359264,26.0456875 16.1539639,24.1130281 C17.4551143,22.9794664 18.7378348,21.8242098 20.0638655,20.7195747 C20.6139978,20.2621726 20.7190482,19.7396856 20.6333492,19.084317 C20.5338278,18.3258973 20.4379923,17.560246 20.4398353,16.7991145 C20.4407568,15.9846495 20.7890818,15.2406931 21.3613299,14.6838558 C23.662302,12.4438511 25.9973693,10.2409087 28.344416,8 C28.864139,8.41853195 29.3119854,8.77921067 29.8317083,9.19774262 C29.5202432,9.49243251 29.2336583,9.75186808 28.9599744,10.0230551 C27.6155138,11.3627189 26.2728962,12.7023827 24.933043,14.0465663 C24.7892899,14.1911994 24.5801106,14.3439681 24.5561517,14.5148159 C24.517449,14.7878108 24.5275854,15.1304104 24.6658096,15.3491679 C24.8537945,15.6438578 25.2159419,15.6863438 25.534779,15.4865694 C25.706177,15.3789985 25.8545376,15.2307496 25.9982908,15.0861165 C27.6145923,13.4653222 29.2290509,11.8427199 30.8997206,10.1640723 C31.3927202,10.6802316 31.8258227,11.1349218 32.2994709,11.6311941 C32.195342,11.7423807 32.0746262,11.8770703 31.9465385,12.0054321 C30.4242294,13.5267912 28.8991558,15.0481504 27.3768467,16.5722214 C27.2441515,16.704199 27.0405012,16.8388886 27.0202283,16.9925612 C26.982447,17.2845392 26.9483517,17.6904158 27.1096133,17.8612636 C27.2727178,18.0330154 27.6818614,18.0303035 27.9712107,17.998665 C28.1389228,17.9796819 28.2928124,17.7627323 28.4365655,17.6190032 C30.056553,16.0009207 31.6737761,14.3801264 33.3426028,12.7069025 C33.7351595,13.1896154 34.1065218,13.6452096 34.5,14.1297304 C33.8466603,14.8393364 33.216358,15.5335751 32.5740763,16.2178703" id="grab-icon" fill="#638138"></path>
                </g>
            </g>
        </g>
    </g>
</svg>