<?xml version="1.0" encoding="utf-8"?>
<!-- Generator: Adobe Illustrator 19.0.1, SVG Export Plug-In . SVG Version: 6.00 Build 0)  -->
<!DOCTYPE svg PUBLIC "-//W3C//DTD SVG 1.1//EN" "http://www.w3.org/Graphics/SVG/1.1/DTD/svg11.dtd">
<svg version="1.1" id="Layer_1" xmlns="http://www.w3.org/2000/svg" xmlns:xlink="http://www.w3.org/1999/xlink" x="0px" y="0px"
	 width="150px" height="125.7330017px" viewBox="-124 138.2669983 150 125.7330017"
	 style="enable-background:new -124 138.2669983 150 125.7330017;" xml:space="preserve">
<style type="text/css">
	.st0{opacity:0.2;}
	.st1{fill:url(#SVGID_1_);}
	.st2{fill:url(#SVGID_2_);}
	.st3{fill:#3E7B3C;}
	.st4{fill-rule:evenodd;clip-rule:evenodd;fill:#FFFFFF;}
</style>
<g class="st0">
	
		<linearGradient id="SVGID_1_" gradientUnits="userSpaceOnUse" x1="-646.4631348" y1="751.7750854" x2="-585.3998413" y2="690.7116699" gradientTransform="matrix(0.454 -0.891 0.891 0.454 -425.8571777 -653.2260132)">
		<stop  offset="0" style="stop-color:#211F1F"/>
		<stop  offset="0.1336" style="stop-color:#211F1F;stop-opacity:0.8664"/>
		<stop  offset="1" style="stop-color:#211F1F;stop-opacity:0"/>
	</linearGradient>
	<path class="st1" d="M-14.6070023,194.6239929c-6.262001-10.6829987-33.9939957-21.4409943-60.409996-13.0599976
		c-26.4150009,8.3820038-45.1660004,33.8880005-43.8160019,46.1300049
		c1.4229965,12.8990021,69.8379974,36.2140198,69.8379974,36.2140198S-8.0400009,205.8280029-14.6070023,194.6239929z"/>
</g>
<g>
	<linearGradient id="SVGID_2_" gradientUnits="userSpaceOnUse" x1="-49.2207184" y1="152.9377136" x2="-49.2207184" y2="264">
		<stop  offset="0" style="stop-color:#98C34C"/>
		<stop  offset="1" style="stop-color:#3F8E43"/>
	</linearGradient>
	<path class="st2" d="M-11.2086487,190.0568695c0-20.5003662-17.0186596-37.1191559-38.0120697-37.1191559
		c-20.9935074,0-38.0120697,16.6187897-38.0120697,37.1191559C-87.2327881,209.6660156-49.1059952,264-49.1059952,264
		S-11.2086487,209.5782471-11.2086487,190.0568695z"/>
</g>
<ellipse class="st3" cx="-49.220768" cy="189.1768799" rx="28.5037174" ry="27.8341808"/>
<path class="st4" d="M-65.8709106,177.6017914l-2.5045166,0.2165222l0.5087814,6.3782806l5.2764511,1.5974731
	L-65.8709106,177.6017914z M-31.5902328,196.6624298l-12.3653908-3.7420502l-8.2037926-20.1496887l-3.0586853,0.4775238
	l0.6013565,16.4441528l-13.1194534-3.9705353c0.4682007,1.4974823,1.8199005,4.0454865,5.65308,7.4261932l27.2185936,8.2380524
	c2.0752335,0.6279144,5.7545223,0.5258942,5.5025597-2.1532745
	C-29.477005,198.0095673-30.4142628,197.0183105-31.5902328,196.6624298z M-51.8411026,198.1607666
	c-0.7734871,0-1.3989906,0.6259155-1.3989906,1.3988037c0,0.7731781,0.6255035,1.3989868,1.3989906,1.3989868
	c0.7724876,0,1.3988914-0.6258087,1.3988914-1.3989868C-50.4422112,198.7866821-51.068615,198.1607666-51.8411026,198.1607666z"/>
</svg>
