<?xml version="1.0" encoding="UTF-8"?>
<svg width="34px" height="34px" viewBox="0 0 34 34" version="1.1" xmlns="http://www.w3.org/2000/svg" xmlns:xlink="http://www.w3.org/1999/xlink">
    <!-- Generator: Sketch 48.2 (47327) - http://www.bohemiancoding.com/sketch -->
    <title>restroom</title>
    <desc>Created with Sketch.</desc>
    <defs>
        <rect id="path-1" x="0" y="0" width="32" height="32" rx="4"></rect>
    </defs>
    <g id="map-markers" stroke="none" stroke-width="1" fill="none" fill-rule="evenodd" transform="translate(-238.000000, -36.000000)">
        <g id="restroom" transform="translate(239.000000, 37.000000)">
            <g id="Rectangle-6">
                <use fill="#8DD119" fill-rule="evenodd" xlink:href="#path-1"></use>
                <rect stroke="#FFFFFF" stroke-width="1" x="-0.5" y="-0.5" width="33" height="33" rx="4"></rect>
            </g>
            <path d="M24,16.7275395 C24,17.5191513 22.9212836,17.5191513 22.9212836,16.7275395 L22.8227619,12.9942402 L22.5465147,12.9942402 L22.5465147,23.2196708 C22.5465147,24.276804 21.0783476,24.2432805 21.0783476,23.2196708 L20.9914167,17.282963 L20.6958515,17.282963 L20.6054433,23.2196708 C20.6054433,24.2432805 19.1407535,24.276804 19.1407535,23.2196708 L19.1407535,12.9942402 L18.8606427,12.9942402 L18.7659846,16.7275395 C18.7659846,17.5191513 17.6915181,17.5191513 17.6915181,16.7275395 L17.6915181,12.645291 C17.6915181,11.2494942 18.1076276,10.9192115 19.3980691,10.9192115 L20.8438273,10.9192115 L22.2857218,10.9192115 C23.580027,10.9192115 24,11.2494942 24,12.645291 L24,16.7275395 Z M16.5749385,23.3545267 C16.5749385,23.7065235 16.2832369,23.9990922 15.9316495,23.9990922 C15.568085,23.9990922 15.2771561,23.7065235 15.2771561,23.3545267 L15.2771561,8.64532745 C15.2771561,8.28914022 15.568085,8 15.9316495,8 C16.2832369,8 16.5749385,8.28914022 16.5749385,8.64532745 L16.5749385,23.3545267 Z M13.3619709,16.2025919 L12.1511195,12.7729089 L12.0108709,12.7729089 C12.0108709,12.7729089 13.6042184,18.9187576 13.6760814,19.1438984 C13.7027402,19.2642783 13.6610133,19.3465632 13.5323555,19.3465632 L12.1511195,19.3465632 L12.1511195,23.3838598 C12.1511195,24.2017571 10.9136092,24.2017571 10.9136092,23.3838598 L10.9136092,19.3126588 L10.4403185,19.3126588 L10.4403185,23.3838598 C10.4403185,24.2017571 9.19894468,24.2017571 9.19894468,23.3838598 L9.19894468,19.3465632 L7.81809497,19.3465632 C7.69677801,19.3465632 7.64771032,19.2642783 7.68170998,19.1438984 C7.75357289,18.9187576 9.3465341,12.7729089 9.3465341,12.7729089 L9.20667188,12.7729089 L7.98809325,16.2025919 C7.7419821,16.9526803 6.79965069,16.6742066 7.03842101,15.8643093 L8.18861396,12.1051054 C8.41579349,11.44454 9.07801408,10.9192115 10.0543451,10.9192115 L11.2918554,10.9192115 C12.2720501,10.9192115 12.9419979,11.44454 13.1614502,12.1051054 L14.3120295,15.8643093 C14.5504135,16.6742066 13.608082,16.9526803 13.3619709,16.2025919 L13.3619709,16.2025919 Z M10.6787025,8 C11.417036,8 12.0147345,8.5927565 12.0147345,9.32836884 C12.0147345,10.0636002 11.417036,10.6563567 10.6787025,10.6563567 C9.93341455,10.6563567 9.33532967,10.0636002 9.33532967,9.32836884 C9.33532967,8.5927565 9.93341455,8 10.6787025,8 L10.6787025,8 Z M20.8438273,8 C21.5817744,8 22.1872001,8.5927565 22.1872001,9.32836884 C22.1872001,10.0636002 21.5817744,10.6563567 20.8438273,10.6563567 C20.1062665,10.6563567 19.5004545,10.0636002 19.5004545,9.32836884 C19.5004545,8.5927565 20.1062665,8 20.8438273,8 L20.8438273,8 Z" id="restrooms" fill="#FFFFFF"></path>
        </g>
    </g>
</svg>