<?xml version="1.0" encoding="UTF-8"?>
<svg width="34px" height="34px" viewBox="0 0 34 34" version="1.1" xmlns="http://www.w3.org/2000/svg" xmlns:xlink="http://www.w3.org/1999/xlink">
    <!-- Generator: Sketch 48.2 (47327) - http://www.bohemiancoding.com/sketch -->
    <title>places-map-icon-shopping-cart</title>
    <desc>Created with Sketch.</desc>
    <defs>
        <rect id="path-1" x="0" y="0" width="32" height="32" rx="4"></rect>
    </defs>
    <g id="map-markers---default-set-(JX)" stroke="none" stroke-width="1" fill="none" fill-rule="evenodd" transform="translate(-190.000000, -36.000000)">
        <g id="places-map-icon-shopping-cart" transform="translate(191.000000, 37.000000)">
            <g id="Rectangle-6">
                <use fill="#8DD119" fill-rule="evenodd" xlink:href="#path-1"></use>
                <rect stroke="#FFFFFF" stroke-width="1" x="-0.5" y="-0.5" width="33" height="33" rx="4"></rect>
            </g>
            <g id="poi-icon-shop" transform="translate(8.000000, 8.000000)" fill="#FFFFFF">
                <path d="M8.46854905,13.835643 C8.46854905,14.6627428 7.81633588,15.3333333 7.01190261,15.3333333 C6.20746934,15.3333333 5.5554784,14.6627428 5.5554784,13.835643 C5.5554784,13.0085432 6.20746934,12.3379526 7.01190261,12.3379526 C7.81633588,12.3379526 8.46854905,13.0085432 8.46854905,13.835643 Z M14.0240274,13.835643 C14.0240274,14.6627428 13.3718143,15.3333333 12.567381,15.3333333 C11.7629477,15.3333333 11.1109568,14.6627428 11.1109568,13.835643 C11.1109568,13.0085432 11.7629477,12.3379526 12.567381,12.3379526 C13.3718143,12.3379526 14.0240274,13.0085432 14.0240274,13.835643 Z M4.43060513,3.63192768 L4.43060513,3.63215616 L16,3.63215616 L14.3244677,10.5441514 C14.1522479,11.2558685 13.4838127,11.7927979 12.7702671,11.7927979 L5.48925709,11.7927979 L2.07886002,1.63409328 L0.794877849,1.63409328 C0.355772836,1.63409328 0,1.26829583 0,0.81704664 C0,0.365568966 0.355772836,0 0.794877849,0 L3.21151095,0 L4.43060513,3.63192768 Z" id="shop"></path>
            </g>
        </g>
    </g>
</svg>