<?xml version="1.0" encoding="UTF-8"?>
<svg width="34px" height="34px" viewBox="0 0 34 34" version="1.1" xmlns="http://www.w3.org/2000/svg" xmlns:xlink="http://www.w3.org/1999/xlink">
    <!-- Generator: Sketch 48.2 (47327) - http://www.bohemiancoding.com/sketch -->
    <title>places-map-icon-ticketing</title>
    <desc>Created with Sketch.</desc>
    <defs>
        <rect id="path-1" x="0" y="0" width="32" height="32" rx="4"></rect>
    </defs>
    <g id="map-markers---default-set-(JX)" stroke="none" stroke-width="1" fill="none" fill-rule="evenodd" transform="translate(-141.000000, -36.000000)">
        <g id="places-map-icon-ticketing" transform="translate(142.000000, 37.000000)">
            <g id="Rectangle-6">
                <use fill="#8DD119" fill-rule="evenodd" xlink:href="#path-1"></use>
                <rect stroke="#FFFFFF" stroke-width="1" x="-0.5" y="-0.5" width="33" height="33" rx="4"></rect>
            </g>
            <g id="ticketing-icon" transform="translate(7.000000, 7.000000)" fill="#FFFFFF">
                <polygon id="Fill-1" points="9.09459574 4.81142675 10.3894468 4.81142675 10.3894468 1.93142675 9.09459574 1.93142675"></polygon>
                <polygon id="Fill-2" points="0 10.5809809 18.4879149 10.5809809 18.4879149 8.94072611 0 8.94072611"></polygon>
                <g id="Group-9" transform="translate(0.382979, 0.210535)">
                    <path d="M14.1053745,3.06481529 C14.9069489,3.06481529 15.5553319,2.41704459 15.5553319,1.61793631 C15.5553319,0.820738854 14.9069489,0.171821656 14.1053745,0.171821656 C13.3049489,0.171821656 12.6569489,0.820738854 12.6569489,1.61793631 C12.6569489,2.41704459 13.3049489,3.06481529 14.1053745,3.06481529" id="Fill-3"></path>
                    <path d="M12.2624809,5.27438217 L12.2624809,16.7259745 C12.2624809,17.8804968 13.8464809,17.8472484 13.8464809,16.7259745 L13.9495021,10.2727261 L14.2635447,10.2727261 L14.3635021,16.7259745 C14.3635021,17.8472484 15.9498,17.8804968 15.9498,16.7259745 L15.9498,5.60801274 L16.2496723,5.60801274 L16.3492468,9.66814013 C16.3492468,10.5314522 17.5142681,10.5314522 17.5142681,9.66814013 L17.5142681,5.2273758 C17.5142681,3.70864968 17.0608213,3.35017834 15.6644809,3.35017834 L14.1053745,3.35132484 L12.5489489,3.35017834 C11.8718426,3.35017834 11.7079277,3.5695414 11.5263957,3.75107006 L8.69809787,7.14126115 C8.12209787,7.84712102 9.14465106,8.67374522 9.71873617,8.01298089 L12.2624809,5.27438217 Z" id="Fill-5"></path>
                    <path d="M8.26590638,4.58151592 L7.34828936,5.67718471 C7.34828936,5.6951465 7.04458723,5.22699363 6.94577872,5.07489172 C6.43718298,4.29489172 6.25986383,3.61578344 5.21088511,3.61578344 L3.6521617,3.61616561 L2.09420426,3.61578344 C0.698246809,3.61578344 0.242885106,3.97463694 0.242885106,5.49374522 L0.242885106,8.42915924 L1.44582128,8.42915924 L1.5101617,5.87247134 L1.80965106,5.87247134 L1.80965106,8.42915924 L5.49735319,8.42915924 L5.49735319,5.53922293 C5.49735319,5.53922293 6.26675745,6.60928662 6.50305532,6.98036943 C6.85003404,7.52457325 7.2180766,7.69043312 7.61254468,7.19935032 L9.16935319,5.32215287 C9.65650213,4.69272611 8.77641702,4.02890446 8.26590638,4.58151592 M3.6521617,3.33145223 C4.45297021,3.33145223 5.10250213,2.68253503 5.10250213,1.88380892 C5.10250213,1.08661146 4.45297021,0.438076433 3.6521617,0.438076433 C2.85288511,0.438076433 2.20450213,1.08661146 2.20450213,1.88380892 C2.20450213,2.68253503 2.85288511,3.33145223 3.6521617,3.33145223" id="Fill-7"></path>
                </g>
            </g>
        </g>
    </g>
</svg>