<?xml version="1.0" encoding="utf-8"?>
<!-- Generator: Adobe Illustrator 19.1.0, SVG Export Plug-In . SVG Version: 6.00 Build 0)  -->
<svg version="1.1" id="Layer_1" xmlns="http://www.w3.org/2000/svg" xmlns:xlink="http://www.w3.org/1999/xlink" x="0px" y="0px"
	 viewBox="0 0 32 32" width="32" height="32" style="enable-background:new 0 0 32 32;" xml:space="preserve">
<style type="text/css">
	.st0{fill:#027E00;stroke:#0FE40A;stroke-width:2;stroke-miterlimit:10;}
	.st1{fill:#0FE40A;}
</style>
<g>
	<circle class="st0" cx="16" cy="16" r="13"/>
	<g>
		<g>
			<path transform="translate(2,2)" class="st1" d="M13.9749413,21.2186642c-3.5841427,0-6.4999433-2.915802-6.4999433-6.4998302
				c0-2.3158216,1.2485127-4.4743214,3.2582908-5.6330805c0.3249454-0.1873169,0.7402115-0.0758324,0.9275284,0.249114
				c0.1873159,0.3249464,0.0758314,0.7402124-0.249114,0.9275284c-1.5905504,0.9170027-2.5785179,2.6245832-2.5785179,4.4564381
				c0,2.8351021,2.3065405,5.1416435,5.1417561,5.1416435s5.1418686-2.3065414,5.1418686-5.1416435
				c0-1.8317413-0.9879665-3.5393229-2.5782909-4.4565516c-0.3249474-0.1874294-0.4364319-0.6026955-0.2490005-0.9275284
				c0.1872025-0.324832,0.602356-0.4365435,0.9274158-0.2490005c2.0096645,1.1589861,3.2580643,3.3174849,3.2580643,5.6330805
				C20.4749966,18.3028622,17.559082,21.2186642,13.9749413,21.2186642z"/>
		</g>
		<g>
			<path transform="translate(2,2)" class="st1" d="M13.9749975,15.106822c-0.3749723,0-0.6790934-0.3041201-0.6790934-0.6790934V7.41043
				c0-0.3749733,0.304121-0.6790934,0.6790934-0.6790934c0.3749733,0,0.6790934,0.3041201,0.6790934,0.6790934v7.0172987
				C14.6540909,14.802702,14.3499708,15.106822,13.9749975,15.106822z"/>
		</g>
	</g>
</g>
</svg>
