<?xml version="1.0" encoding="UTF-8"?>
<svg width="34px" height="34px" viewBox="0 0 34 34" version="1.1" xmlns="http://www.w3.org/2000/svg" xmlns:xlink="http://www.w3.org/1999/xlink">
    <!-- Generator: Sketch 48.2 (47327) - http://www.bohemiancoding.com/sketch -->
    <title>places-map-icon-exit</title>
    <desc>Created with Sketch.</desc>
    <defs>
        <rect id="path-1" x="0" y="0" width="32" height="32" rx="4"></rect>
    </defs>
    <g id="map-markers---Lufthansa-custom-(JX)" stroke="none" stroke-width="1" fill="none" fill-rule="evenodd" transform="translate(-83.000000, -36.000000)">
        <g id="places-map-icon-exit" transform="translate(84.000000, 37.000000)">
            <g id="geometry">
                <use fill="#8DD119" fill-rule="evenodd" xlink:href="#path-1"></use>
                <rect stroke="#FFFFFF" stroke-width="1" x="-0.5" y="-0.5" width="33" height="33" rx="4"></rect>
            </g>
            <path d="M13.3024545,14.02046 L9.06056818,14.02046 C8.47754545,14.02046 8,14.4642971 8,15.0290138 L8,17.0766168 C8,17.6310458 8.47754545,18.0851706 9.06056818,18.0851706 L13.2812045,18.0851706 L13.2703864,21.1104646 L20.7793636,16.0375676 L13.3237045,10.9947986 L13.3024545,14.02046 Z M13.3024545,8 L13.3024545,9.00818639 L14.65975,10.0171076 L22.8475682,10.0171076 L22.8475682,22.1289386 L14.6280682,22.1289386 L13.3024545,23.1066296 L13.3024545,24.1052632 L25,24.1052632 L25,8 L13.3024545,8 Z" id="exit" fill="#FFFFFF"></path>
        </g>
    </g>
</svg>