<svg xmlns="http://www.w3.org/2000/svg" xmlns:xlink="http://www.w3.org/1999/xlink" width="34" height="34" viewBox="0 0 34 34">
    <defs>
        <rect id="a" width="32" height="32" rx="4"/>
    </defs>
    <g fill="none" fill-rule="evenodd">
        <g transform="translate(1 1)">
            <use fill="#8DD119" xlink:href="#a"/>
            <rect width="33" height="33" x="-.5" y="-.5" stroke="#FFF" rx="4"/>
        </g>
        <path fill="#FFF" fill-rule="nonzero" d="M22.554 22.39a1.32 1.32 0 0 1-1.027-.49 1.261 1.261 0 0 1-.29-.798c0-.712.59-1.289 1.317-1.289.728 0 1.317.577 1.317 1.289 0 .027-.007.053-.008.08a1.302 1.302 0 0 1-1.309 1.209zm-9.984-.437a1.32 1.32 0 0 1-.982.437 1.302 1.302 0 0 1-1.314-1.259l-.003-.03c0-.712.59-1.288 1.317-1.288s1.317.576 1.317 1.288c0 .328-.129.624-.335.852zm-1.963-9.759c0-.504.417-.913.932-.913h10.97c.514 0 .931.409.931.913l.288 5.583a.923.923 0 0 1-.933.913H11.252a.923.923 0 0 1-.933-.913l.288-5.583zm4.384-3.187h4.065c.306 0 .552.242.552.54 0 .298-.246.54-.552.54h-4.065a.546.546 0 0 1-.552-.54c0-.298.247-.54.552-.54zM25.5 11.986l-.288-2.585c0-.773-.928-1.401-1.718-1.401H10.506c-.79 0-1.719.628-1.719 1.401L8.5 11.938V23.52h1.484v1.213A1.28 1.28 0 0 0 11.277 26c.713 0 1.293-.567 1.293-1.266V23.52h8.955v1.213A1.28 1.28 0 0 0 22.817 26c.715 0 1.294-.567 1.294-1.266V23.52H25.5V11.986z"/>
    </g>
</svg>
