<?xml version="1.0" encoding="UTF-8"?>
<svg width="34px" height="34px" viewBox="0 0 34 34" version="1.1" xmlns="http://www.w3.org/2000/svg" xmlns:xlink="http://www.w3.org/1999/xlink">
    <!-- Generator: Sketch 48.2 (47327) - http://www.bohemiancoding.com/sketch -->
    <title>places-map-icon-train</title>
    <desc>Created with Sketch.</desc>
    <defs>
        <rect id="path-1" x="0" y="0" width="32" height="32" rx="4"></rect>
    </defs>
    <g id="map-markers---Lufthansa-custom-(JX)" stroke="none" stroke-width="1" fill="none" fill-rule="evenodd" transform="translate(-133.000000, -36.000000)">
        <g id="places-map-icon-train" transform="translate(134.000000, 37.000000)">
            <g id="geometry">
                <use fill="#8DD119" fill-rule="evenodd" xlink:href="#path-1"></use>
                <rect stroke="#FFFFFF" stroke-width="1" x="-0.5" y="-0.5" width="33" height="33" rx="4"></rect>
            </g>
            <path d="M27,7.0310035 L26.6306942,9.00530643 L15.9900442,8.96860773 C15.2329458,9.59379638 12.0678361,12.568139 10.9788354,15.7207325 L11.6185642,15.7246645 L14.6228819,15.7334023 C17.3176533,16.8334897 20.696006,17.7365399 24.8637014,18.1511479 L24.75665,18.727405 L9.04245205,18.6658036 C9.44744164,13.5747321 13.7032717,9.71437783 13.7032717,9.71437783 C16.2768043,6.87372333 19.0124187,7.00085813 19.0124187,7.00085813 L27,7.0310035 Z M25.0506329,17.1456034 L24.9345531,17.8192868 C20.9680627,17.431329 17.7367445,16.5885695 15.1468748,15.5701804 C15.2999281,15.5146955 15.4701785,15.4360554 15.6417187,15.3521727 L16.1163562,15.0651364 C16.5643383,14.7361587 17.0144701,14.2997062 17.3794766,13.6989834 L17.4929769,13.5237908 C17.5978786,13.6116055 17.7066497,13.6863136 17.814131,13.7662643 C20.3425215,15.5854716 22.2131262,16.4767258 25.0506329,17.1456034 Z M25.291821,15.8895466 L25.119421,16.8244897 C22.3266265,16.1595442 20.4972945,15.2787753 18.0114667,13.4936454 C17.8893679,13.408452 17.7702787,13.3149577 17.6447405,13.2367545 C17.9031256,12.7006912 18.1215276,12.077687 18.2603934,11.3292956 L18.3678748,10.6119233 L18.3678748,10.5940108 C18.4319336,10.6674082 18.499002,10.7460483 18.5583316,10.8246884 C20.3812147,12.982048 22.1069347,14.5330051 25.291821,15.8895466 Z M25.5927687,14.3704823 L25.360609,15.5448409 C22.2672968,14.2210662 20.5901584,12.709429 18.8137072,10.5979428 C18.6679626,10.4367307 18.5402748,10.2689652 18.418176,10.1138694 C18.424195,9.98717154 18.4267745,9.86265808 18.4358029,9.74207662 L20.9964378,9.75605708 C21.1150971,9.89935678 21.2053814,10.0496467 21.3124328,10.2099851 C23.0046186,12.5626342 24.5579386,13.6954883 25.5927687,14.3704823 Z M26.4762651,9.77440643 L25.6559677,14.0192233 C24.6443535,13.3424817 23.1778785,12.2362779 21.5884448,10.0055209 C21.5114882,9.91377413 21.4672059,9.83251271 21.4156149,9.75605708 L26.4762651,9.77440643 Z M23.5194541,25 L6,24.9344666 L6.80224052,21.0133848 L24.2842911,21.0806657 L23.5194541,25 Z M24.4769407,20.164334 L8.85173721,20.1066646 L8.54563042,18.9847328 L24.6884639,19.0458973 L24.4769407,20.164334 Z" id="skytrain" fill="#FFFFFF"></path>
        </g>
    </g>
</svg>