<?xml version="1.0" encoding="UTF-8"?>
<svg width="34px" height="34px" viewBox="0 0 34 34" version="1.1" xmlns="http://www.w3.org/2000/svg" xmlns:xlink="http://www.w3.org/1999/xlink">
    <!-- Generator: Sketch 48.2 (47327) - http://www.bohemiancoding.com/sketch -->
    <title>places-map-icon-voucher</title>
    <desc>Created with Sketch.</desc>
    <defs>
        <rect id="path-1" x="0" y="0" width="32" height="32" rx="4"></rect>
    </defs>
    <g id="map-markers---Lufthansa-custom-(JX)" stroke="none" stroke-width="1" fill="none" fill-rule="evenodd" transform="translate(-34.000000, -36.000000)">
        <g id="places-map-icon-voucher" transform="translate(35.000000, 37.000000)">
            <g id="geometry">
                <use fill="#8DD119" fill-rule="evenodd" xlink:href="#path-1"></use>
                <rect stroke="#FFFFFF" stroke-width="1" x="-0.5" y="-0.5" width="33" height="33" rx="4"></rect>
            </g>
            <path d="M16.5930833,16.6751495 C18.119125,16.2764674 18.0794167,14.8950408 17.9335833,13.9505299 C17.7884167,13.0066712 17.4225,12.0704348 16.5702917,12.2939674 C15.737625,12.5117935 14.778625,13.5136141 14.0117083,14.9186005 C13.785125,14.8530163 13.5481667,14.8530163 13.3215833,14.9186005 C12.5546667,13.5136141 11.5956667,12.5117935 10.763,12.2939674 C9.91079167,12.0704348 9.54491667,13.0066304 9.39970833,13.9505299 C9.253875,14.8950408 9.21416667,16.2764674 10.7402083,16.6751495 C11.3209583,16.8273505 11.893875,16.8407609 12.3365833,16.813981 C11.5143333,17.3903804 10.5234167,18.4176766 10,19.5315897 C10.19075,19.8621196 11.3606667,20.5722554 11.75975,20.7391304 C12.0605417,19.1806793 12.9980417,17.7737772 13.6666667,17.1196875 C14.3352917,17.7737772 15.2727917,19.1806793 15.5735833,20.7391304 C15.9726667,20.5722554 17.1425833,19.8621196 17.3333333,19.5315897 C16.809875,18.4176766 15.819,17.3903804 14.99675,16.813981 C15.4394583,16.8407201 16.012375,16.8273505 16.5930833,16.6751495 Z M7.33333333,10.9565217 C7.33333333,10.5966848 7.63216667,10.3043478 8,10.3043478 L12,10.3043478 L12,9 L8,9 C6.89516667,9 6,9.87570652 6,10.9565217 L6,14.8695652 L7.33333333,14.8695652 L7.33333333,10.9565217 Z M8,22.6956522 C7.63216667,22.6956522 7.33333333,22.4033152 7.33333333,22.0434783 L7.33333333,18.1304348 L6,18.1304348 L6,22.0434783 C6,23.1242935 6.89516667,24 8,24 L12,24 L12,22.6956522 L8,22.6956522 Z M24.6666667,22.0434783 C24.6666667,22.4033152 24.3678333,22.6956522 24,22.6956522 L15.3333333,22.6956522 L15.3333333,24 L24,24 C25.1048333,24 26,23.1242935 26,22.0434783 L26,18.1304348 L24.6666667,18.1304348 L24.6666667,22.0434783 Z M24,9 L15.3333333,9 L15.3333333,10.3043478 L24,10.3043478 C24.3678333,10.3043478 24.6666667,10.5966848 24.6666667,10.9565217 L24.6666667,14.8695652 L26,14.8695652 L26,10.9565217 C26,9.87570652 25.1048333,9 24,9 Z M8.77475,15.5217391 L6,15.5217391 L6,17.4782609 L10.61525,17.4782609 C10.6549583,17.4349321 10.693375,17.3872011 10.7330833,17.3451359 C9.70054167,17.1222554 9.01433333,16.5146332 8.77475,15.5217391 Z M26,15.5217391 L18.5585833,15.5217391 C18.328125,16.4796196 17.6738333,17.1101495 16.60025,17.3451359 C16.6399583,17.3871603 16.678375,17.4349321 16.7180833,17.4782609 L26,17.4782609 L26,15.5217391 Z M12.6666667,19.981875 L12.6666667,24 L14.6666667,24 L14.6666667,19.981875 C14.4101667,19.2749185 14.041,18.6208288 13.6666667,18.1246875 C13.2923333,18.6208288 12.9231667,19.2749185 12.6666667,19.981875 Z M14.6666667,12.8359647 L14.6666667,9 L12.6666667,9 L12.6666667,12.8359647 C13.0143333,13.2123505 13.3515833,13.6664674 13.6666667,14.1880842 C13.9817917,13.6664674 14.319,13.2123913 14.6666667,12.8359647 Z M10.6894583,15.1217935 C10.59375,14.9218207 10.8229167,14.4708832 11.012375,14.5014538 C11.3275,14.5511413 12.1419167,15.1402582 12.6666667,15.804538 C11.7584583,15.804538 10.834625,15.4224049 10.6894583,15.1217935 Z M14.6666667,15.804538 C15.1914167,15.1402582 16.005875,14.5511413 16.3209583,14.5014538 C16.5104167,14.4708832 16.7395833,14.9218207 16.643875,15.1217935 C16.4987083,15.4224049 15.574875,15.804538 14.6666667,15.804538 Z" id="vouchers" fill="#FFFFFF" fill-rule="nonzero"></path>
        </g>
    </g>
</svg>