<?xml version="1.0" encoding="UTF-8"?>
<svg width="31px" height="31px" viewBox="0 0 31 31" version="1.1" xmlns="http://www.w3.org/2000/svg" xmlns:xlink="http://www.w3.org/1999/xlink">
    <!-- Generator: Sketch 46.1 (44463) - http://www.bohemiancoding.com/sketch -->
    <title>search-icon-vouchers</title>
    <desc>Created with Sketch.</desc>
    <defs></defs>
    <g id="IOS---Vouchers" stroke="none" stroke-width="1" fill="none" fill-rule="evenodd">
        <g id="Lufthansa.map.vouchers" transform="translate(-192.000000, -237.000000)">
            <g id="MIA-map">
                <g id="search-icon-vouchers" transform="translate(193.000000, 238.000000)">
                    <g id="POI-shop-badge-background">
                        <path d="M29.1473046,26.2738719 C29.1473046,27.8611553 27.8606593,29.1473879 26.2737968,29.1473879 L2.87350785,29.1473879 C1.2866453,29.1473879 0,27.8611553 0,26.2738719 L0,2.87393245 C0,1.28664898 1.2866453,0 2.87350785,0 L26.2737968,0 C27.8606593,0 29.1473046,1.28664898 29.1473046,2.87393245 L29.1473046,26.2738719 Z" id="Fill-1" stroke="#FFFFFF" fill="#BD3800"></path>
                        <path d="M15.0907804,14.8440027 C16.6164903,14.4365496 16.5767906,13.0247316 16.430989,12.0594415 C16.2858539,11.0948179 15.9200168,10.1379843 15.0679937,10.3664347 C14.2355081,10.5890529 13.2767166,11.6129136 12.5099666,13.0488097 C12.2834325,12.9817826 12.0465257,12.9817826 11.8199916,13.0488097 C11.0532417,11.6129136 10.0944502,10.5890529 9.26196454,10.3664347 C8.40994148,10.1379843 8.04414601,11.0947763 7.89896925,12.0594415 C7.75316762,13.0247316 7.71346792,14.4365496 9.23917783,14.8440027 C9.81980158,14.9995522 10.3925937,15.0132576 10.8352058,14.9858885 C10.0131345,15.5749688 9.02243329,16.6248655 8.49913041,17.7632846 C8.68983895,18.1010861 9.85950128,18.826845 10.2584979,18.9973912 C10.5592241,17.4046542 11.4965203,15.9668002 12.165,15.2983206 C12.8334796,15.9668002 13.7707758,17.4046542 14.0715021,18.9973912 C14.4704986,18.826845 15.640161,18.1010861 15.8308695,17.7632846 C15.307525,16.6248655 14.3168654,15.5749688 13.4947941,14.9858885 C13.9374062,15.0132159 14.5101983,14.9995522 15.0907804,14.8440027 Z M5.83304347,8.99956521 C5.83304347,8.63181184 6.13181184,8.33304347 6.49956521,8.33304347 L10.4986956,8.33304347 L10.4986956,7 L6.49956521,7 C5.39497206,7 4.5,7.89497206 4.5,8.99956521 L4.5,12.9986956 L5.83304347,12.9986956 L5.83304347,8.99956521 Z M6.49956521,20.9969565 C6.13181184,20.9969565 5.83304347,20.6981881 5.83304347,20.3304347 L5.83304347,16.3313043 L4.5,16.3313043 L4.5,20.3304347 C4.5,21.4350279 5.39497206,22.3299999 6.49956521,22.3299999 L10.4986956,22.3299999 L10.4986956,20.9969565 L6.49956521,20.9969565 Z M23.1626086,20.3304347 C23.1626086,20.6981881 22.8638402,20.9969565 22.4960869,20.9969565 L13.8313043,20.9969565 L13.8313043,22.3299999 L22.4960869,22.3299999 C23.60068,22.3299999 24.4956521,21.4350279 24.4956521,20.3304347 L24.4956521,16.3313043 L23.1626086,16.3313043 L23.1626086,20.3304347 Z M22.4960869,7 L13.8313043,7 L13.8313043,8.33304347 L22.4960869,8.33304347 C22.8638402,8.33304347 23.1626086,8.63181184 23.1626086,8.99956521 L23.1626086,12.9986956 L24.4956521,12.9986956 L24.4956521,8.99956521 C24.4956521,7.89497206 23.60068,7 22.4960869,7 Z M7.27414678,13.6652174 L4.5,13.6652174 L4.5,15.6647826 L9.11424666,15.6647826 C9.15394636,15.6205005 9.19235468,15.5717195 9.23205438,15.5287288 C8.19973718,15.300945 7.51367803,14.679955 7.27414678,13.6652174 Z M24.4956521,13.6652174 L17.0558531,13.6652174 C16.8254449,14.6441712 16.1712955,15.2885727 15.0979455,15.5287288 C15.1376452,15.5716778 15.1760536,15.6205005 15.2157533,15.6647826 L24.4956521,15.6647826 L24.4956521,13.6652174 Z M11.1652174,18.2234762 L11.1652174,22.3299999 L13.1647826,22.3299999 L13.1647826,18.2234762 C12.9083383,17.5009666 12.5392519,16.832487 12.165,16.3254306 C11.790748,16.832487 11.4216616,17.5009666 11.1652174,18.2234762 Z M13.1647826,10.9203559 L13.1647826,7 L11.1652174,7 L11.1652174,10.9203559 C11.5128084,11.3050222 11.8499851,11.7691297 12.165,12.3022221 C12.4800565,11.7691297 12.8171915,11.3050639 13.1647826,10.9203559 Z M9.18843886,13.2564729 C9.09275134,13.0521007 9.32186818,12.5912426 9.51128533,12.6224858 C9.82634182,12.6732664 10.6405814,13.2753438 11.1652174,13.9542378 C10.2572065,13.9542378 9.33357397,13.5636978 9.18843886,13.2564729 Z M13.1647826,13.9542378 C13.6894185,13.2753438 14.5036998,12.6732664 14.8187146,12.6224858 C15.0081317,12.5912426 15.2372486,13.0521007 15.1415611,13.2564729 C14.996426,13.5636978 14.0727935,13.9542378 13.1647826,13.9542378 Z" id="Shape" fill="#FFFFFF" fill-rule="nonzero"></path>
                    </g>
                </g>
            </g>
        </g>
    </g>
</svg>